<svg class="paymentOptions__paymentIcon--74W1J" xmlns="http://www.w3.org/2000/svg" width="48" height="36" viewBox="0 0 48 36" aria-label="AmericanExpress Icon"><g fill="none" fill-rule="evenodd"><rect width="48" height="36" rx="4"/><path fill="#008BB6" fill-rule="nonzero" d="M29.592 22.982v-.97s-.062-.777-.807-.777h-1.243v1.747H26.3v-4.917h3.044s1.553-.194 1.553 1.423c0 .841-.683 1.165-.683 1.165s.62.259.62 1.1v1.23h-1.242zm-2.05-2.911h1.305c.373 0 .683-.195.683-.453 0-.26-.31-.453-.683-.453h-1.305v.906zm-6.274 2.911H20.15l-1.305-1.488-1.304 1.488h-4.66V18h4.536l1.428 1.553L20.275 18h3.975s1.553-.194 1.553 1.424c0 1.488-.497 1.94-2.112 1.94h-1.243v1.618h-1.18zm-1.615-2.458l1.553 1.747v-3.43l-1.553 1.683zm-5.529 1.358h2.61l1.242-1.358-1.243-1.36h-2.609v.777h2.547v1.1h-2.547v.841zm8.324-1.811h1.305c.373 0 .683-.195.683-.453 0-.26-.31-.453-.683-.453h-1.305v.906zm15.655 2.911h-2.236v-1.164h1.925s.684.064.684-.389-1.056-.388-1.056-.388-1.74.13-1.74-1.488c0-1.618 1.553-1.553 1.553-1.553h2.423v1.165H37.73s-.683-.13-.683.323c0 .388.932.324.932.324s1.926-.13 1.926 1.359c0 1.617-1.243 1.747-1.678 1.747-.062.064-.124.064-.124.064zm-6.71 0v-4.917h3.915v1.164h-2.61v.777h2.547v1.1h-2.547v.841h2.61v1.1h-3.914v-.065zm11.059 0h-2.237v-1.164h1.926s.683.064.683-.389-1.056-.388-1.056-.388-1.74.13-1.74-1.488c0-1.618 1.554-1.553 1.554-1.553h2.36v1.165h-1.925s-.684-.13-.684.323c0 .388.932.324.932.324s1.926-.13 1.926 1.359c0 1.617-1.243 1.747-1.677 1.747 0 .064-.062.064-.062.064zm-17.394-5.306v-.97s-.063-.777-.808-.777h-1.242v1.747h-1.243V12.76h3.044s1.553-.194 1.553 1.423c0 .842-.683 1.165-.683 1.165s.621.259.621 1.1v1.23h-1.242zm-2.05-2.911h1.304c.373 0 .683-.194.683-.453 0-.26-.31-.453-.683-.453h-1.304v.906zm16.772 2.911l-1.988-3.3v3.3H35.37l-.435-1.035h-2.299l-.434 1.035h-1.926s-1.678-.258-1.678-2.329c0-2.718 1.926-2.653 1.988-2.653l1.553.065v1.035h-1.242s-.808 0-.932 1.1v.324c0 1.682 1.429 1.164 1.491 1.164l1.553-3.688h1.74l1.863 4.465v-4.465h1.74l1.925 3.235v-3.235h1.243v4.982h-1.74zm-6.585-2.329h1.243l-.621-1.488-.622 1.488zm-18.077 2.33v-3.43l-1.615 3.43h-.994l-1.553-3.43v3.43H8.471l-.435-1.036H5.738l-.435 1.035H3.936l2.05-4.917h1.74l1.926 4.53v-4.53h1.987l1.367 3.106 1.367-3.106h1.988v4.917h-1.243zm-8.821-2.265h1.242l-.62-1.488-.622 1.488zm10.933 2.264V12.76h3.914v1.165h-2.61v.776h2.548v1.035h-2.547v.841h2.609v1.1H17.23zm9.691 0v-4.982h1.243v4.982H26.92z"/></g></svg>