<svg class="paymentOptions__paymentIcon--74W1J" xmlns="http://www.w3.org/2000/svg" width="48" height="36" viewBox="0 0 48 36" aria-label="Apple Icon"><g fill="none" fill-rule="evenodd"><rect width="48" height="36" rx="4"/><g fill="#000"><path d="M11.875 12.011c.429-.541.72-1.268.643-2.011-.627.031-1.393.418-1.835.96-.398.464-.75 1.22-.659 1.932.704.062 1.408-.355 1.851-.881M12.51 13.032c-1.023-.062-1.892.586-2.38.586s-1.235-.556-2.044-.54c-1.052.015-2.028.616-2.562 1.572-1.099 1.913-.29 4.75.778 6.308.519.77 1.144 1.62 1.967 1.59.778-.032 1.083-.51 2.029-.51.945 0 1.22.51 2.044.494.854-.016 1.388-.771 1.906-1.543.595-.879.839-1.727.854-1.773-.015-.016-1.647-.648-1.662-2.545-.015-1.589 1.281-2.344 1.342-2.39-.732-1.095-1.876-1.219-2.273-1.25M20.185 16.991h2.039c1.547 0 2.427-.841 2.427-2.3 0-1.46-.88-2.294-2.42-2.294h-2.046v4.594zm2.515-6.109c2.221 0 3.768 1.548 3.768 3.8 0 2.261-1.579 3.817-3.824 3.817h-2.46v3.952h-1.776V10.882H22.7zM32.304 19.309v-.65l-1.976.128c-1.11.072-1.69.49-1.69 1.219 0 .705.603 1.162 1.548 1.162 1.205 0 2.118-.777 2.118-1.86zm-5.395.745c0-1.483 1.119-2.333 3.181-2.461l2.214-.137v-.64c0-.94-.611-1.452-1.698-1.452-.897 0-1.547.465-1.682 1.178h-1.603c.048-1.499 1.444-2.59 3.333-2.59 2.03 0 3.356 1.075 3.356 2.743v5.756h-1.643v-1.387h-.04c-.467.906-1.499 1.475-2.618 1.475-1.65 0-2.8-.994-2.8-2.485zM35.52 25.546v-1.387c.11.016.38.032.523.032.785 0 1.23-.337 1.5-1.203l.158-.513-3.007-8.418h1.857l2.094 6.83h.04l2.094-6.83h1.81L39.47 22.9c-.714 2.029-1.53 2.694-3.26 2.694-.135 0-.572-.016-.69-.048"/></g></g></svg>