<svg xmlns="http://www.w3.org/2000/svg" width="120" height="40" viewBox="0 0 120 40"><g fill="none" fill-rule="evenodd"><path fill="#A9AAA9" d="M110.443 0H9.562c-.368 0-.731 0-1.098.002-.307.002-.612.008-.922.013-.668.016-1.343.057-2.01.176A6.461 6.461 0 0 0 .821 3.618a6.612 6.612 0 0 0-.626 1.903c-.12.663-.163 1.333-.18 2.002-.009.307-.01.615-.015.921v23.115c.005.31.006.611.015.921.017.67.06 1.34.18 2.002.117.67.314 1.298.626 1.905a6.234 6.234 0 0 0 1.183 1.614 6.293 6.293 0 0 0 1.622 1.179 6.76 6.76 0 0 0 1.906.631c.667.119 1.342.158 2.01.176.31.007.615.011.922.011.367.002.73.002 1.098.002h100.881c.362 0 .727 0 1.087-.002.307 0 .62-.004.926-.011.672-.018 1.346-.057 2.005-.176a6.859 6.859 0 0 0 1.914-.631 6.327 6.327 0 0 0 1.622-1.179 6.428 6.428 0 0 0 1.184-1.614 6.552 6.552 0 0 0 .62-1.905c.125-.662.163-1.332.188-2.002.003-.31.003-.611.003-.921.008-.364.008-.725.008-1.094V9.536c0-.366 0-.729-.008-1.092 0-.306 0-.614-.003-.921-.025-.669-.063-1.339-.188-2.002a6.569 6.569 0 0 0-.62-1.903 6.482 6.482 0 0 0-2.806-2.8 6.85 6.85 0 0 0-1.914-.627c-.66-.119-1.333-.16-2.005-.176-.306-.005-.619-.011-.926-.013C111.17 0 110.805 0 110.443 0"/><path fill="#000" d="M8.403 39.198c-.306 0-.605-.004-.908-.011-.562-.015-1.228-.047-1.877-.164a5.89 5.89 0 0 1-1.663-.55 5.395 5.395 0 0 1-1.403-1.02 5.35 5.35 0 0 1-1.025-1.402 5.773 5.773 0 0 1-.545-1.664c-.123-.675-.154-1.36-.167-1.882A76.584 76.584 0 0 1 .8 31.59V8.399s.009-.694.015-.898c.013-.526.044-1.21.166-1.88.107-.616.285-1.16.546-1.668a5.358 5.358 0 0 1 1.02-1.403A5.59 5.59 0 0 1 5.613.977C6.29.857 6.975.825 7.497.812L8.403.8H111.59l.917.013c.515.012 1.2.043 1.866.163a5.988 5.988 0 0 1 1.678.55 5.55 5.55 0 0 1 1.397 1.02c.413.407.755.881 1.028 1.41.26.512.435 1.056.538 1.655.116.633.152 1.283.174 1.894.003.284.003.59.003.893.009.377.009.735.009 1.097v21.01c0 .364 0 .72-.009 1.079 0 .326 0 .625-.004.933-.021.592-.057 1.241-.172 1.86a5.772 5.772 0 0 1-.542 1.677c-.27.522-.614.993-1.02 1.391-.415.42-.886.762-1.404 1.026a5.884 5.884 0 0 1-1.676.552c-.642.117-1.308.149-1.876.164-.293.007-.603.011-.902.011l-1.088.002-102.104-.002"/><path fill="#FFFFFE" d="M38.059 25.591h3.752l-1.85-5.447h-.051l-1.851 5.447zm4.243 1.549h-4.733l-1.137 3.356h-2.005l4.484-12.418h2.083l4.483 12.418h-2.039l-1.136-3.356zm10.948-1.17c0-1.833-.948-3.038-2.393-3.038-1.42 0-2.375 1.23-2.375 3.038 0 1.824.955 3.046 2.375 3.046 1.445 0 2.393-1.197 2.393-3.046zm1.91 0c0 2.813-1.506 4.621-3.779 4.621-1.29 0-2.314-.577-2.848-1.584h-.043v4.484h-1.859V21.442h1.799v1.506h.034c.517-.971 1.619-1.6 2.883-1.6 2.298 0 3.813 1.816 3.813 4.622zm8.054 0c0-1.833-.947-3.038-2.392-3.038-1.42 0-2.375 1.23-2.375 3.038 0 1.824.955 3.046 2.375 3.046 1.445 0 2.392-1.197 2.392-3.046zm1.91 0c0 2.813-1.505 4.621-3.778 4.621-1.29 0-2.314-.577-2.848-1.584h-.043v4.484h-1.859V21.442h1.799v1.506h.034c.517-.971 1.618-1.6 2.883-1.6 2.298 0 3.812 1.816 3.812 4.622zm6.587 1.066c.137 1.232 1.334 2.04 2.968 2.04 1.567 0 2.694-.808 2.694-1.919 0-.964-.68-1.541-2.289-1.936l-1.61-.388c-2.28-.551-3.339-1.617-3.339-3.348 0-2.142 1.868-3.614 4.519-3.614 2.624 0 4.423 1.472 4.483 3.614h-1.876c-.112-1.239-1.137-1.987-2.633-1.987-1.498 0-2.522.757-2.522 1.858 0 .878.654 1.395 2.255 1.791l1.368.335c2.548.603 3.607 1.626 3.607 3.443 0 2.323-1.851 3.778-4.794 3.778-2.754 0-4.614-1.421-4.734-3.667h1.903zM83.346 19.3v2.142h1.722v1.472h-1.722v4.991c0 .776.345 1.137 1.102 1.137a5.7 5.7 0 0 0 .611-.043v1.463c-.206.052-.619.086-1.032.086-1.833 0-2.548-.689-2.548-2.444v-5.19h-1.316v-1.472h1.316V19.3h1.867zm9.414 6.67c0-1.954-.895-3.108-2.401-3.108-1.506 0-2.4 1.162-2.4 3.108 0 1.962.894 3.106 2.4 3.106 1.506 0 2.401-1.144 2.401-3.106zm-6.695 0c0-2.849 1.678-4.639 4.294-4.639 2.625 0 4.295 1.79 4.295 4.639 0 2.856-1.661 4.638-4.295 4.638-2.633 0-4.294-1.782-4.294-4.638zm10.121-4.528h1.773v1.541h.043c.284-1.024 1.11-1.635 2.177-1.635.267 0 .49.035.637.069v1.738c-.147-.06-.474-.112-.835-.112-1.196 0-1.936.81-1.936 2.083v5.37h-1.859v-9.054zm6.916 3.693h4.526c-.043-1.386-.929-2.298-2.22-2.298-1.282 0-2.211.93-2.306 2.298zm6.282 2.702c-.25 1.644-1.85 2.771-3.898 2.771-2.634 0-4.269-1.764-4.269-4.595 0-2.84 1.644-4.682 4.191-4.682 2.505 0 4.08 1.721 4.08 4.466v.637h-6.395v.112c0 1.549.973 2.564 2.436 2.564 1.032 0 1.842-.49 2.091-1.273h1.764zM36.598 13.854h1.125c1.248 0 1.967-.777 1.967-2.146 0-1.348-.731-2.134-1.967-2.134h-1.125v4.28zm1.228-5.123c1.77 0 2.808 1.087 2.808 2.965 0 1.906-1.03 3.002-2.808 3.002h-2.155V8.731h2.155zm7.188 3.713c0-.976-.439-1.546-1.208-1.546-.773 0-1.207.57-1.207 1.546 0 .984.434 1.551 1.207 1.551.769 0 1.208-.571 1.208-1.551zm-3.333 0c0-1.451.81-2.336 2.125-2.336 1.311 0 2.122.885 2.122 2.336 0 1.46-.807 2.341-2.122 2.341-1.319 0-2.125-.881-2.125-2.341zm9.892 2.254h-.922l-.93-3.317h-.071l-.926 3.317h-.913l-1.242-4.503h.902l.806 3.436h.067l.926-3.436h.852l.926 3.436h.07l.803-3.436h.889l-1.237 4.503zm2.281-4.503h.855v.715h.066c.219-.5.666-.802 1.344-.802 1.005 0 1.559.603 1.559 1.675v2.915h-.889v-2.692c0-.724-.314-1.084-.972-1.084-.657 0-1.075.439-1.075 1.141v2.635h-.888v-4.503zm5.24 4.503V8.437h.889v6.261h-.889zm5.457-2.254c0-.976-.439-1.546-1.208-1.546-.773 0-1.207.57-1.207 1.546 0 .984.434 1.551 1.207 1.551.769 0 1.208-.571 1.208-1.551zm-3.333 0c0-1.451.81-2.336 2.125-2.336 1.311 0 2.122.885 2.122 2.336 0 1.46-.807 2.341-2.122 2.341-1.319 0-2.125-.881-2.125-2.341zm8.077.596v-.377l-1.099.07c-.62.042-.901.253-.901.65 0 .405.351.641.834.641.67 0 1.166-.426 1.166-.984zm-2.894.384c0-.81.603-1.278 1.675-1.344l1.219-.07v-.389c0-.475-.314-.744-.921-.744-.496 0-.84.182-.939.5h-.86c.091-.773.818-1.269 1.84-1.269 1.129 0 1.765.562 1.765 1.513v3.077h-.855v-.633h-.071c-.268.451-.76.707-1.352.707-.868 0-1.501-.525-1.501-1.348zm5.865-.98c0 .955.45 1.53 1.203 1.53.749 0 1.212-.583 1.212-1.526 0-.938-.468-1.53-1.212-1.53-.748 0-1.203.579-1.203 1.526zm-.918 0c0-1.423.732-2.324 1.869-2.324.617 0 1.137.294 1.381.79h.067V8.437h.888v6.261h-.851v-.712h-.071c-.268.493-.794.786-1.414.786-1.145 0-1.869-.901-1.869-2.328zm11.215 0c0-.976-.439-1.546-1.208-1.546-.773 0-1.207.57-1.207 1.546 0 .984.434 1.551 1.207 1.551.769 0 1.208-.571 1.208-1.551zm-3.333 0c0-1.451.811-2.336 2.125-2.336 1.311 0 2.122.885 2.122 2.336 0 1.46-.807 2.341-2.122 2.341-1.318 0-2.125-.881-2.125-2.341zm5.44-2.249h.855v.715h.066c.219-.5.666-.802 1.344-.802 1.005 0 1.559.603 1.559 1.675v2.915h-.889v-2.692c0-.724-.314-1.084-.972-1.084-.657 0-1.075.439-1.075 1.141v2.635h-.888v-4.503zm8.845-1.121v1.141h.976v.749h-.976v2.315c0 .472.195.679.637.679.137 0 .215-.009.339-.021v.74a2.862 2.862 0 0 1-.484.046c-.988 0-1.381-.348-1.381-1.216v-2.543h-.715v-.749h.715V9.074h.889zm2.19-.637h.881v2.481h.07c.218-.504.694-.806 1.373-.806.959 0 1.551.608 1.551 1.679v2.907h-.89V12.01c0-.719-.335-1.084-.963-1.084-.728 0-1.134.46-1.134 1.142v2.63h-.888V8.437zm5.93 3.594h2.275c-.021-.707-.451-1.167-1.109-1.167-.657 0-1.116.464-1.166 1.167zm3.126 1.451c-.202.807-.922 1.303-1.951 1.303-1.29 0-2.08-.885-2.08-2.325 0-1.439.807-2.352 2.076-2.352 1.253 0 2.009.856 2.009 2.27v.31h-3.18v.05c.03.789.489 1.29 1.199 1.29.539 0 .907-.195 1.072-.546h.855zM24.769 20.301c.028 3.298 2.884 4.387 2.919 4.399-.017.076-.447 1.573-1.518 3.092-.895 1.338-1.833 2.646-3.321 2.67-1.446.033-1.932-.852-3.591-.852-1.674 0-2.192.828-3.579.885-1.418.053-2.501-1.428-3.428-2.754-1.852-2.706-3.295-7.627-1.361-10.975.937-1.642 2.647-2.7 4.473-2.728 1.419-.03 2.736.958 3.608.958.856 0 2.484-1.182 4.163-1.005.702.02 2.702.277 3.992 2.157-.105.063-2.382 1.402-2.357 4.153zm-2.732-8.09c-.778.918-2.024 1.621-3.237 1.53-.158-1.239.456-2.557 1.144-3.361.778-.913 2.128-1.612 3.208-1.66.141 1.289-.369 2.558-1.115 3.491z"/></g></svg>