<svg class="paymentOptions__paymentIcon--74W1J" xmlns="http://www.w3.org/2000/svg" xmlns:xlink="http://www.w3.org/1999/xlink" width="48" height="36" viewBox="0 0 48 36" aria-label="Discover Icon"><defs><linearGradient id="discoverIconIdA" x1="19.204%" x2="73.216%" y1="100%" y2="6.85%"><stop offset="0%" stop-color="#7E190F"/><stop offset="31.429%" stop-color="#E44B1D"/><stop offset="73.939%" stop-color="#F07415"/><stop offset="100%" stop-color="#F59314"/></linearGradient><path id="discoverIconIdB" d="M22.3 17.899v.002a3.4 3.4 0 0 0 6.8 0v-.002a3.4 3.4 0 0 0-6.8 0"/></defs><g fill="none" fill-rule="evenodd"><rect width="48" height="36" rx="4"/><path fill="#201D1C" fill-rule="nonzero" d="M7.68 19.607c.436-.386.7-1.003.7-1.62 0-.616-.264-1.215-.7-1.601-.418-.375-.913-.52-1.729-.52h-.339v4.252h.339c.816 0 1.332-.156 1.728-.511zm-1.476-4.83c2.048 0 3.476 1.321 3.476 3.219 0 .946-.437 1.861-1.175 2.468-.622.512-1.33.742-2.31.742H4.35v-6.43h1.854zm4.057 6.43v-6.43h1.263v6.43h-1.263zm4.352-3.963c1.436.522 1.862.984 1.862 2.006 0 1.244-.92 2.11-2.233 2.11-.961 0-1.66-.375-2.242-1.223l.816-.78c.29.558.776.857 1.378.857.564 0 .981-.386.981-.907 0-.27-.126-.501-.379-.665-.127-.078-.378-.193-.873-.366-1.186-.424-1.593-.878-1.593-1.763 0-1.053.874-1.843 2.02-1.843.71 0 1.36.242 1.902.713l-.66.86c-.33-.367-.64-.521-1.019-.521-.544 0-.94.307-.94.712 0 .348.222.531.98.81zm2.26.752c0-1.87 1.535-3.365 3.448-3.365.544 0 1 .116 1.554.395v1.476c-.525-.51-.981-.724-1.584-.724-1.184 0-2.116.974-2.116 2.209 0 1.302.903 2.217 2.175 2.217.573 0 1.02-.202 1.525-.704v1.476c-.574.269-1.04.375-1.584.375-1.923 0-3.417-1.465-3.417-3.355zm15.017 1.1l1.749-4.32h1.369l-2.798 6.595h-.68l-2.747-6.594h1.38l1.727 4.318zm3.69 2.11v-6.43h3.581v1.09h-2.32v1.427h2.234v1.09h-2.234v1.735h2.32v1.088h-3.582zm6.048-3.47c.807 0 1.234-.347 1.234-.994 0-.625-.427-.953-1.214-.953h-.389v1.948h.369zm2.534-1.061c0 .984-.524 1.63-1.475 1.823l2.038 2.708h-1.553l-1.748-2.583h-.165v2.583h-1.262v-6.43h1.873c1.457 0 2.292.695 2.292 1.899z"/><use fill="url(#discoverIconIdA)" transform="matrix(1 0 0 -1 0 35.8)" xmlns:xlink="http://www.w3.org/1999/xlink" xlink:href="#discoverIconIdB"/></g></svg>