<svg xmlns="http://www.w3.org/2000/svg" width="24" height="24" viewBox="0 0 24 24"><path fill="#1E1E1E" fill-rule="evenodd" d="M16.579 9.587l-.413 3.21H13.38V21h-3.29v-8.2H7.33V9.59h2.76V7.23C10.09 4.49 11.765 3 14.206 3h.052a23.4 23.4 0 0 1 2.412.124v2.862h-1.681c-1.331 0-1.59.63-1.59 1.558v2.043h3.18zm-2.12-2.527c.006 0 .132-.074.53-.074h1.68a1 1 0 0 0 1-1V3.124a1 1 0 0 0-.896-.995A24.556 24.556 0 0 0 14.258 2h-.054C11.099 2 9.09 4.052 9.09 7.23v1.36H7.33a1 1 0 0 0-1 1v3.21a1 1 0 0 0 1 1h1.76V21a1 1 0 0 0 1 1h3.29a1 1 0 0 0 1-1v-7.204h1.786a1 1 0 0 0 .992-.872l.404-3.139a.998.998 0 0 0-.978-1.198h-2.185V7.544c0-.376.056-.476.06-.484z"/></svg>