<svg class="paymentOptions__paymentIcon--74W1J" xmlns="http://www.w3.org/2000/svg" width="48" height="36" viewBox="0 0 48 36" aria-label="GooglePay Icon"><g fill="none" fill-rule="evenodd"><rect width="48" height="36" rx="4"/><g fill-rule="nonzero"><path fill="#5F6368" d="M22.922 17.826v4.645h-1.47V11.006h3.9a3.543 3.543 0 0 1 2.53.996 3.162 3.162 0 0 1 1.05 2.414 3.2 3.2 0 0 1-1.05 2.432c-.686.65-1.526.978-2.521.978h-2.439zm0-5.412v4.004h2.466a1.921 1.921 0 0 0 1.452-.594c.776-.75.786-1.984.037-2.761l-.037-.037a1.897 1.897 0 0 0-1.452-.603l-2.466-.01zm9.398 1.956c1.086 0 1.945.293 2.575.869.63.585.94 1.38.94 2.395v4.828H34.43v-1.088h-.064c-.612.896-1.415 1.344-2.429 1.344-.858 0-1.589-.256-2.164-.768a2.426 2.426 0 0 1-.868-1.92c0-.814.31-1.454.922-1.939.612-.484 1.434-.722 2.457-.722.877 0 1.59.165 2.155.476v-.339c0-.503-.219-.978-.602-1.298a2.136 2.136 0 0 0-1.416-.54c-.822 0-1.47.348-1.954 1.043l-1.297-.814c.703-1.015 1.753-1.527 3.15-1.527zm-1.9 5.696c0 .384.183.74.484.96.329.256.73.393 1.142.384.62 0 1.214-.247 1.653-.685.484-.458.73-.997.73-1.619-.456-.365-1.096-.548-1.918-.548-.593 0-1.095.146-1.497.43-.393.292-.594.649-.594 1.078zm13.489-5.44l-4.914 11.3H37.48l1.827-3.949-3.233-7.342h1.598L40 20.267h.037l2.274-5.632 1.598-.009z"/><path fill="#4285F4" d="M16.977 16.82c0-.447-.036-.895-.11-1.334h-6.2v2.532h3.552a3.049 3.049 0 0 1-1.315 2.003v1.645h2.119c1.242-1.143 1.954-2.834 1.954-4.845z"/><path fill="#34A853" d="M10.667 23.257c1.771 0 3.27-.585 4.356-1.59l-2.119-1.646c-.593.402-1.351.63-2.237.63-1.717 0-3.17-1.16-3.69-2.715H4.795v1.7a6.584 6.584 0 0 0 5.872 3.621z"/><path fill="#FBBC04" d="M6.977 17.936a3.976 3.976 0 0 1 0-2.523V13.72H4.795a6.534 6.534 0 0 0 0 5.906l2.182-1.691z"/><path fill="#EA4335" d="M10.667 12.697a3.537 3.537 0 0 1 2.52.988l1.872-1.875a6.273 6.273 0 0 0-4.392-1.719 6.576 6.576 0 0 0-5.872 3.63l2.182 1.7c.52-1.563 1.973-2.724 3.69-2.724z"/></g></g></svg>