<svg xmlns="http://www.w3.org/2000/svg" width="135" height="40" viewBox="0 0 135 40"><defs><linearGradient id="downloadGooglePlayIdA" x1="59.881%" x2="26.733%" y1="18.253%" y2="67.86%"><stop offset="0%" stop-color="#00A1FF"/><stop offset="48.208%" stop-color="#00D2FF"/><stop offset="75.058%" stop-color="#00BEFF"/><stop offset="100%" stop-color="#00E3FF"/></linearGradient><linearGradient id="downloadGooglePlayIdB" x1="87.171%" x2="-50.137%" y1="31.144%" y2="136.01%"><stop offset="0%" stop-color="#FF3A44"/><stop offset="100%" stop-color="#C31162"/></linearGradient><linearGradient id="downloadGooglePlayIdC" x1="87.171%" x2="-50.137%" y1="27.513%" y2="152.573%"><stop offset="0%" stop-color="#FFE000"/><stop offset="38.87%" stop-color="#FFA500"/><stop offset="100%" stop-color="#FF9C00"/></linearGradient><linearGradient id="downloadGooglePlayIdD" x1="87.171%" x2="-50.137%" y1="31.142%" y2="136.019%"><stop offset="0%" stop-color="#00F076"/><stop offset="47.54%" stop-color="#15CF74"/><stop offset="100%" stop-color="#32A071"/></linearGradient></defs><g fill="none" fill-rule="evenodd"><path fill="#000" d="M130 40H5c-2.75 0-5-2.25-5-5V5c0-2.75 2.25-5 5-5h125c2.75 0 5 2.25 5 5v30c0 2.75-2.25 5-5 5"/><path fill="#A6A6A6" d="M130 0H5C2.25 0 0 2.25 0 5v30c0 2.75 2.25 5 5 5h125c2.75 0 5-2.25 5-5V5c0-2.75-2.25-5-5-5m0 .8c2.316 0 4.2 1.884 4.2 4.2v30c0 2.316-1.884 4.2-4.2 4.2H5A4.205 4.205 0 0 1 .8 35V5C.8 2.684 2.684.8 5 .8h125"/><path fill="#FFF" d="M106.937 30h1.865V17.499h-1.865V30zm16.806-7.998l-2.139 5.42h-.064l-2.22-5.42h-2.009l3.329 7.575-1.899 4.214h1.946l5.131-11.789h-2.075zM113.16 28.58c-.61 0-1.463-.306-1.463-1.061 0-.965 1.062-1.335 1.979-1.335.819 0 1.206.177 1.704.418a2.262 2.262 0 0 1-2.22 1.978zm.226-6.851c-1.351 0-2.75.595-3.329 1.914l1.656.691c.354-.691 1.014-.917 1.705-.917.965 0 1.946.579 1.962 1.608v.129c-.338-.193-1.062-.482-1.946-.482-1.786 0-3.603.981-3.603 2.814 0 1.673 1.464 2.751 3.105 2.751 1.253 0 1.946-.563 2.379-1.223h.065v.965h1.802v-4.792c0-2.22-1.658-3.458-3.796-3.458zm-11.532 1.795H99.2v-4.285h2.654c1.395 0 2.187 1.155 2.187 2.142 0 .969-.792 2.143-2.187 2.143zm-.048-6.025h-4.471V30H99.2v-4.736h2.606c2.068 0 4.101-1.497 4.101-3.883 0-2.385-2.033-3.882-4.101-3.882zM77.425 28.583c-1.289 0-2.368-1.08-2.368-2.562 0-1.499 1.079-2.594 2.368-2.594 1.272 0 2.271 1.095 2.271 2.594 0 1.482-.999 2.562-2.271 2.562zm2.142-5.881h-.064c-.419-.499-1.225-.951-2.239-.951-2.127 0-4.076 1.87-4.076 4.27 0 2.384 1.949 4.237 4.076 4.237 1.014 0 1.82-.451 2.239-.966h.064v.611c0 1.628-.87 2.497-2.271 2.497-1.144 0-1.853-.821-2.143-1.514l-1.627.677c.467 1.127 1.707 2.513 3.77 2.513 2.191 0 4.044-1.289 4.044-4.43v-7.637h-1.773v.693zM82.629 30h1.868V17.499h-1.868V30zm4.623-4.124c-.048-1.644 1.273-2.481 2.224-2.481.741 0 1.369.371 1.579.902l-3.803 1.579zm5.8-1.418c-.355-.95-1.434-2.707-3.641-2.707-2.191 0-4.012 1.725-4.012 4.254 0 2.384 1.805 4.253 4.221 4.253 1.949 0 3.077-1.192 3.545-1.885l-1.45-.967c-.484.709-1.144 1.177-2.095 1.177-.95 0-1.627-.436-2.061-1.29l5.686-2.352-.193-.483zm-45.308-1.401v1.804h4.318c-.129 1.015-.468 1.756-.983 2.271-.629.629-1.612 1.322-3.335 1.322-2.659 0-4.737-2.143-4.737-4.801 0-2.658 2.078-4.801 4.737-4.801 1.434 0 2.481.564 3.254 1.289l1.273-1.273c-1.08-1.031-2.513-1.821-4.527-1.821-3.641 0-6.702 2.965-6.702 6.606 0 3.64 3.061 6.605 6.702 6.605 1.965 0 3.447-.645 4.607-1.853 1.192-1.192 1.563-2.867 1.563-4.221 0-.418-.032-.805-.097-1.127h-6.073zm11.078 5.526c-1.288 0-2.4-1.064-2.4-2.578 0-1.531 1.112-2.578 2.4-2.578 1.289 0 2.401 1.047 2.401 2.578 0 1.514-1.112 2.578-2.401 2.578zm0-6.832c-2.352 0-4.269 1.789-4.269 4.254 0 2.449 1.917 4.253 4.269 4.253 2.353 0 4.27-1.804 4.27-4.253 0-2.465-1.917-4.254-4.27-4.254zm9.314 6.832c-1.289 0-2.401-1.064-2.401-2.578 0-1.531 1.112-2.578 2.401-2.578 1.289 0 2.4 1.047 2.4 2.578 0 1.514-1.111 2.578-2.4 2.578zm0-6.832c-2.352 0-4.269 1.789-4.269 4.254 0 2.449 1.917 4.253 4.269 4.253 2.352 0 4.269-1.804 4.269-4.253 0-2.465-1.917-4.254-4.269-4.254zM44.47 10.611l-.1-.1v-.72l.1-.1h2.907l.098.082c.029.163.044.319.044.47 0 .864-.258 1.556-.773 2.072-.585.613-1.346.92-2.277.92-.892 0-1.655-.312-2.278-.93-.625-.619-.939-1.39-.939-2.305 0-.916.313-1.685.94-2.305.623-.618 1.385-.929 2.277-.929.443 0 .868.087 1.271.26.405.173.73.406.976.697l-.006.135-.528.528-.147-.007c-.378-.45-.897-.676-1.566-.676-.605 0-1.127.212-1.569.638-.441.426-.66.976-.66 1.66 0 .682.22 1.233.66 1.657.442.427.963.638 1.57.638.643 0 1.176-.213 1.605-.64.252-.254.407-.6.462-1.045h-2.068zm7.558 1.551l.1.1V13l-.1.1h-3.503l-.1-.1V7l.1-.1h3.503l.1.1v.737l-.1.1h-2.632V9.54h2.363l.1.1v.721l-.1.1h-2.363v1.702h2.632zm3.35.838l-.1.1h-.77l-.1-.1V7.837h-1.576l-.1-.1V7l.1-.1h4.123l.1.1v.737l-.1.1h-1.576V13zm4.56.1l-.1-.1V7l.1-.1h.771l.1.1v6l-.1.1h-.771zm4.29-.1l-.1.1h-.77l-.1-.1V7.837H61.68l-.1-.1V7l.1-.1h4.123l.1.1v.737l-.1.1h-1.576V13zm7.181-.704c.617 0 1.135-.214 1.56-.644.425-.431.637-.98.637-1.652 0-.672-.213-1.222-.638-1.652a2.103 2.103 0 0 0-1.559-.645c-.616 0-1.133.214-1.559.645-.424.43-.637.98-.637 1.652 0 .672.213 1.22.638 1.652a2.1 2.1 0 0 0 1.558.644zm0 .938c-.904 0-1.663-.314-2.27-.94-.608-.625-.913-1.39-.913-2.294 0-.903.305-1.67.913-2.294.608-.626 1.367-.94 2.27-.94.899 0 1.656.315 2.268.943.61.628.916 1.393.916 2.291 0 .903-.304 1.669-.912 2.294-.609.626-1.368.94-2.272.94zm5.037-3.971V13l-.1.1h-.77l-.1-.1V7l.1-.1 1.022.047 2.759 4.502-.028-.938V7l.1-.1h.772l.1.1v6l-.1.1-.89-.047-2.892-4.729.027.939z"/><path fill="url(#downloadGooglePlayIdA)" d="M.694.398c-.29.308-.462.786-.462 1.405v22.116c0 .62.172 1.098.462 1.405l.074.072 12.39-12.389v-.292L.768.325.694.398z" transform="translate(9.741 7.14)"/><path fill="#000" fill-opacity=".12" d="M10.435 32.318c-.29-.308-.463-.786-.463-1.405v.146c0 .62.173 1.097.464 1.405l.073-.074-.074-.072z"/><path fill="url(#downloadGooglePlayIdB)" d="M.694 25.324c.461.487 1.222.548 2.079.062l14.608-8.301-4.223-4.224L.694 25.324z" transform="translate(9.741 7.14)"/><path fill="#000" fill-opacity=".2" d="M27.029 24.132L12.514 32.38c-.812.46-1.538.43-2.004.01l-.074.075.073.072v-.001c.467.42 1.193.45 2.005-.01l14.608-8.301-.093-.093z"/><path fill="url(#downloadGooglePlayIdC)" d="M13.158 12.715v.292l4.129 4.131.094-.052 4.893-2.78c1.397-.795 1.397-2.095 0-2.888l-4.893-2.781-.093-.053-4.13 4.131z" transform="translate(9.741 7.14)"/><path fill="#000" fill-opacity=".12" d="M32.015 21.299l-4.986 2.833.093.093 4.893-2.78c.699-.397 1.048-.92 1.048-1.443-.06.473-.414.937-1.048 1.297"/><path fill="url(#downloadGooglePlayIdD)" d="M.694.398l12.464 12.463 4.223-4.224L2.773.337C2.371.108 1.99 0 1.652 0a1.28 1.28 0 0 0-.958.398" transform="translate(9.741 7.14)"/><path fill="#FFF" fill-opacity=".25" d="M12.514 7.623l19.5 11.08c.635.36.99.824 1.049 1.298 0-.523-.35-1.047-1.048-1.444L12.514 7.477c-1.398-.794-2.541-.134-2.541 1.466v.146c0-1.6 1.143-2.26 2.54-1.466"/></g></svg>