<svg xmlns="http://www.w3.org/2000/svg" width="24" height="24" viewBox="0 0 24 24"><path fill="#1E1E1E" fill-rule="evenodd" d="M21.067 15.946c-.04.87-.167 1.542-.414 2.178a4.246 4.246 0 0 1-.997 1.532 4.24 4.24 0 0 1-1.533.998c-.635.247-1.307.374-2.178.414-1.02.046-1.359.057-3.945.057s-2.926-.011-3.946-.057c-.87-.04-1.543-.167-2.178-.414a4.24 4.24 0 0 1-1.533-.998 4.246 4.246 0 0 1-.997-1.532c-.247-.636-.374-1.307-.414-2.178-.046-1.021-.057-1.36-.057-3.946 0-2.586.011-2.925.057-3.946.04-.87.167-1.542.414-2.177a4.25 4.25 0 0 1 .997-1.533 4.237 4.237 0 0 1 1.533-.997c.635-.247 1.307-.375 2.178-.414 1.02-.047 1.36-.058 3.946-.058 2.586 0 2.925.01 3.945.058.871.039 1.543.167 2.178.413a4.253 4.253 0 0 1 1.533.998c.454.455.762.928.997 1.533.247.635.374 1.307.414 2.178.046 1.02.058 1.359.058 3.945s-.012 2.925-.058 3.946m1-7.937c.046 1.039.058 1.383.058 3.99 0 2.609-.012 2.954-.059 3.992-.044.984-.193 1.754-.48 2.495a5.204 5.204 0 0 1-1.223 1.877 5.195 5.195 0 0 1-1.878 1.223c-.74.288-1.51.436-2.495.48-1.038.048-1.382.059-3.99.059-2.608 0-2.953-.011-3.992-.058-.983-.045-1.753-.193-2.494-.481a5.195 5.195 0 0 1-1.878-1.223 5.202 5.202 0 0 1-1.222-1.877c-.288-.741-.436-1.511-.48-2.495-.048-1.038-.059-1.383-.059-3.991s.011-2.952.058-3.991c.045-.984.193-1.753.481-2.495a5.21 5.21 0 0 1 1.222-1.877 5.18 5.18 0 0 1 1.878-1.222c.741-.288 1.511-.437 2.495-.481 1.038-.048 1.383-.06 3.991-.06s2.952.012 3.991.06c.984.044 1.753.193 2.494.48.741.288 1.32.665 1.878 1.223a5.197 5.197 0 0 1 1.222 1.877c.288.742.437 1.51.481 2.495zM12 16.125A4.13 4.13 0 0 1 7.875 12 4.13 4.13 0 0 1 12 7.875 4.13 4.13 0 0 1 16.125 12 4.13 4.13 0 0 1 12 16.125zm0-9.25A5.13 5.13 0 0 0 6.875 12 5.13 5.13 0 0 0 12 17.125 5.13 5.13 0 0 0 17.125 12 5.13 5.13 0 0 0 12 6.875zm5.363.437a.656.656 0 0 1 0-1.31.656.656 0 0 1 0 1.31zm0-2.31c-.913 0-1.655.742-1.655 1.655 0 .912.742 1.655 1.655 1.655s1.655-.743 1.655-1.655c0-.913-.742-1.655-1.655-1.655z"/></svg>