<svg class="paymentOptions__paymentIcon--74W1J" xmlns="http://www.w3.org/2000/svg" width="48" height="36" viewBox="0 0 48 36" aria-label="MasterCard Icon"><g fill="none" fill-rule="evenodd"><rect width="48" height="36" rx="4"/><path fill="#FF5F00" d="M19.253 25.934h9.482V9.776h-9.482z"/><path fill="#F79E1B" d="M39.931 17.855c0 5.675-4.41 10.276-9.85 10.276a9.553 9.553 0 0 1-6.087-2.197c2.291-1.882 3.762-4.8 3.762-8.079 0-3.278-1.47-6.197-3.762-8.079a9.553 9.553 0 0 1 6.088-2.197c5.44 0 9.849 4.6 9.849 10.276"/><path fill="#EB001B" d="M20.232 17.855c0-3.278 1.471-6.197 3.762-8.079a9.553 9.553 0 0 0-6.087-2.197c-5.44 0-9.85 4.6-9.85 10.276 0 5.675 4.41 10.276 9.85 10.276 2.297 0 4.411-.82 6.087-2.197-2.29-1.882-3.762-4.8-3.762-8.079"/></g></svg>