<svg class="paymentOptions__paymentIcon--74W1J" xmlns="http://www.w3.org/2000/svg" width="48" height="36" viewBox="0 0 48 36" aria-label="PayPal Icon"><g fill="none" fill-rule="evenodd"><rect width="48" height="36" rx="4"/><path fill="#218EC2" d="M31.302 15.998c-.17 1.149-1.021 1.149-1.845 1.149h-.469L29.317 15a.262.262 0 0 1 .256-.225h.215c.56 0 1.09 0 1.363.33.163.196.212.488.15.892zM30.943 13h-3.106a.436.436 0 0 0-.426.375l-1.256 8.208a.264.264 0 0 0 .256.308h1.594a.305.305 0 0 0 .298-.262l.356-2.327a.436.436 0 0 1 .426-.376h.983c2.046 0 3.226-1.02 3.535-3.042.14-.885.006-1.58-.396-2.066-.442-.535-1.225-.818-2.264-.818z"/><path fill="#253666" d="M9.15 15.998c-.17 1.149-1.022 1.149-1.845 1.149h-.469L7.166 15a.261.261 0 0 1 .255-.225h.215c.56 0 1.09 0 1.363.33.163.196.212.488.15.892zM8.79 13H5.685a.436.436 0 0 0-.426.375l-1.256 8.208a.264.264 0 0 0 .256.308h1.483c.212 0 .393-.159.426-.375l.339-2.214a.436.436 0 0 1 .426-.376h.983c2.046 0 3.227-1.02 3.535-3.042.139-.885.006-1.58-.396-2.066C10.613 13.283 9.83 13 8.79 13zM16.002 18.944c-.144.876-.819 1.464-1.679 1.464-.431 0-.777-.143-.999-.414-.22-.268-.302-.65-.233-1.076.134-.868.82-1.475 1.667-1.475.422 0 .765.144.992.417.227.276.317.66.252 1.084zm2.072-2.983h-1.487a.261.261 0 0 0-.256.225l-.065.429-.104-.156c-.322-.481-1.04-.642-1.757-.642-1.643 0-3.046 1.283-3.32 3.083-.142.897.06 1.755.554 2.354.454.55 1.102.78 1.873.78 1.325 0 2.06-.877 2.06-.877l-.067.426a.264.264 0 0 0 .256.308H17.1c.212 0 .393-.159.426-.375l.804-5.247a.264.264 0 0 0-.256-.308z"/><path fill="#218EC2" d="M38.154 18.944c-.144.876-.819 1.464-1.679 1.464-.431 0-.777-.143-.999-.414-.22-.268-.302-.65-.233-1.076.134-.868.82-1.475 1.667-1.475.422 0 .765.144.992.417.227.276.317.66.252 1.084zm2.072-2.983H38.74a.261.261 0 0 0-.256.225l-.065.429-.104-.156c-.322-.481-1.04-.642-1.757-.642-1.643 0-3.046 1.283-3.32 3.083-.142.897.06 1.755.554 2.354.454.55 1.102.78 1.873.78 1.325 0 2.06-.877 2.06-.877l-.067.426a.264.264 0 0 0 .256.308h1.339c.212 0 .393-.159.426-.375l.804-5.247a.264.264 0 0 0-.256-.308z"/><path fill="#253666" d="M25.995 15.96H24.5a.428.428 0 0 0-.357.196l-2.062 3.13-.874-3.008a.434.434 0 0 0-.413-.317h-1.47c-.177 0-.302.18-.244.353l1.646 4.98-1.549 2.25c-.121.177.002.422.212.422h1.493a.428.428 0 0 0 .355-.192l4.971-7.394c.12-.177-.004-.42-.213-.42"/><path fill="#218EC2" d="M41.98 13.225l-1.275 8.358a.264.264 0 0 0 .255.308h1.282c.213 0 .393-.159.427-.375l1.256-8.208A.264.264 0 0 0 43.67 13h-1.435a.261.261 0 0 0-.256.225"/></g></svg>