<svg xmlns="http://www.w3.org/2000/svg" width="24" height="24" viewBox="0 0 24 24"><path fill="#1E1E1E" fill-rule="evenodd" d="M18.848 8.493c.007.151.007.303.007.455C18.855 13.612 15.3 19 8.803 19a10.05 10.05 0 0 1-5.41-1.578 7.083 7.083 0 0 0 5.229-1.468 3.532 3.532 0 0 1-3.3-2.452c.215.041.435.062.663.062.323 0 .634-.042.93-.124a3.541 3.541 0 0 1-2.832-3.466v-.048c.475.262 1.02.421 1.598.441a3.545 3.545 0 0 1-1.095-4.72 10.029 10.029 0 0 0 7.283 3.693A3.537 3.537 0 0 1 15.313 5c1.013 0 1.93.427 2.577 1.116a7.051 7.051 0 0 0 2.246-.854 3.56 3.56 0 0 1-1.557 1.957 7.16 7.16 0 0 0 2.033-.559 7.203 7.203 0 0 1-1.764 1.833m2.528-2.477a.984.984 0 0 0-.351-.266c.022-.059.043-.119.062-.179a1 1 0 0 0-1.463-1.168 6.005 6.005 0 0 1-1.446.618 4.551 4.551 0 0 0-2.865-1.02 4.54 4.54 0 0 0-4.523 4.213 9.08 9.08 0 0 1-5.43-3.199 1.004 1.004 0 0 0-.854-.364.998.998 0 0 0-.785.495 4.558 4.558 0 0 0-.27 4.005 1 1 0 0 0-.368.775c0 1.25.493 2.393 1.304 3.224a1 1 0 0 0-.017.655 4.52 4.52 0 0 0 1.765 2.366 6.136 6.136 0 0 1-2.617.26 1 1 0 0 0-.661 1.835A11.046 11.046 0 0 0 8.803 20c4.154 0 6.758-1.966 8.212-3.616 1.798-2.039 2.832-4.737 2.84-7.406a8.193 8.193 0 0 0 1.587-1.76 1 1 0 0 0-.066-1.202"/></svg>