<svg class="paymentOptions__paymentIcon--74W1J" xmlns="http://www.w3.org/2000/svg" width="48" height="36" viewBox="0 0 48 36" aria-label="Visa Icon"><g fill="none" fill-rule="evenodd"><rect width="48" height="36" rx="4"/><path fill="#152883" fill-rule="nonzero" d="M21.03 23.833h-3.2l2-12.289h3.2l-2 12.29zm-5.92-12.289l-3.04 8.478-.4-1.789-1.12-5.522s-.16-1.089-1.52-1.089H3.99l-.08.156s1.52.31 3.36 1.4l2.8 10.655h3.36l5.12-12.289h-3.44zm21.84 8.012l1.68-4.59.96 4.59h-2.64zm3.52 4.277h2.96l-2.56-12.289h-2.56c-1.2 0-1.52.934-1.52.934l-4.8 11.355h3.36l.64-1.789h4.08l.4 1.79zm-8.24-9.1l.48-2.644s-1.44-.545-2.88-.545c-1.6 0-5.36.7-5.36 4.045 0 3.189 4.48 3.189 4.48 4.9 0 1.711-4 1.4-5.28.311l-.48 2.8s1.44.7 3.6.7 5.52-1.167 5.52-4.2c0-3.189-4.48-3.5-4.48-4.9 0-1.4 3.04-1.244 4.4-.467z"/></g></svg>